<svg width="110" height="111" viewBox="0 0 110 111" fill="none" xmlns="http://www.w3.org/2000/svg">
<path d="M103.949 6.05094C99.916 2.01723 95.0572 0 89.3763 0H20.6251C14.9441 0 10.0854 2.01723 6.05094 6.05094C2.01723 10.0854 0 14.9439 0 20.6251V89.3755C0 95.0562 2.01723 99.9152 6.05094 103.95C10.0854 107.984 14.9441 110.001 20.6251 110.001H89.3755C95.0565 110.001 99.9152 107.984 103.948 103.95C107.982 99.9152 110 95.0565 110 89.3755V20.6251C109.999 14.9439 107.982 10.0847 103.949 6.05094ZM84.1478 42.325C84.1957 42.7547 84.2201 43.3981 84.2201 44.2589C84.2201 48.2696 83.6346 52.292 82.4655 56.3252C81.2963 60.3604 79.5056 64.2276 77.0935 67.9274C74.684 71.627 71.8074 74.8984 68.4658 77.7389C65.1234 80.5784 61.1135 82.8472 56.4336 84.5409C51.756 86.237 46.742 87.0851 41.3952 87.0851C33.0884 87.0851 25.4018 84.8396 18.3354 80.3536C19.4813 80.4961 20.6755 80.5681 21.9161 80.5681C28.8393 80.5681 35.0698 78.4197 40.6083 74.1216C37.3622 74.0752 34.4613 73.0734 31.9073 71.1138C29.3525 69.1565 27.5745 66.6742 26.5717 63.6662C27.8126 63.8568 28.7434 63.9514 29.364 63.9514C30.4143 63.9514 31.6321 63.7608 33.0162 63.3798C29.5311 62.7103 26.5953 60.9812 24.208 58.1882C21.8203 55.3949 20.6268 52.2082 20.6268 48.6278V48.4845C23.1565 49.6773 25.5438 50.2978 27.788 50.3463C23.4432 47.4333 21.271 43.2563 21.271 37.8137C21.271 35.1398 21.9628 32.6096 23.3474 30.2224C27.1188 34.8538 31.7031 38.5534 37.0973 41.3224C42.4921 44.0911 48.2696 45.6436 54.4282 45.9774C54.1899 45.0704 54.0702 43.9241 54.0702 42.54C54.0702 38.3856 55.5384 34.8413 58.4749 31.9047C61.4105 28.9684 64.9558 27.4998 69.1089 27.4998C73.5023 27.4998 77.1555 29.0758 80.0675 32.227C83.362 31.6065 86.5621 30.3884 89.6645 28.5749C88.4713 32.2501 86.2499 35.0434 83.0048 36.9533C86.1071 36.5229 88.9948 35.7117 91.6679 34.5182C89.663 37.5736 87.1556 40.1756 84.1478 42.325Z" fill="white"/>
<path d="M101.088 9.03125H9.7832V101.841H101.088V9.03125Z" fill="white"/>
<path d="M65.0078 13C47.3679 13 33.0156 27.3523 33.0156 44.9922C33.0156 52.9281 35.9373 60.1828 40.7394 65.7801L37.3742 69.146L35.6329 67.4047C34.7101 66.4819 33.0759 66.4819 32.153 67.4047L15.1591 84.4019C12.2803 87.2813 12.2803 91.9628 15.1591 94.8416C18.0385 97.7211 22.7226 97.7179 25.5988 94.8416L42.5953 77.847C43.556 76.8864 43.556 75.3284 42.5953 74.3671L40.8541 72.6259L44.2193 69.26C49.8173 74.0627 57.0719 76.9844 65.0078 76.9844C82.6477 76.9844 97 62.6322 97 44.9922C97 27.3523 82.6477 13 65.0078 13ZM77.3125 49.9141C77.3125 53.9849 74.0005 57.2969 69.9297 57.2969H67.4688V59.7579C67.4688 61.1178 66.3677 62.2188 65.0078 62.2188C63.6472 62.2188 62.5469 61.1178 62.5469 59.7579V57.2969H55.1641C53.8035 57.2969 52.7031 56.1959 52.7031 54.836C52.7031 53.4754 53.8035 52.375 55.1641 52.375H57.625C57.625 50.712 57.625 36.8686 57.625 37.6094H55.1641C53.8035 37.6094 52.7031 36.5084 52.7031 35.1485C52.7031 33.7879 53.8035 32.6875 55.1641 32.6875H62.5469V30.2266C62.5469 28.866 63.6472 27.7656 65.0078 27.7656C66.3677 27.7656 67.4688 28.866 67.4688 30.2266V32.6875H69.9297C74.0005 32.6875 77.3125 35.9995 77.3125 40.0703C77.3125 41.968 76.5729 43.6829 75.3925 44.9922C76.5729 46.3015 77.3125 48.0165 77.3125 49.9141Z" fill="black"/>
<path d="M69.75 47H63V52H69.75C70.9916 52 72 50.8796 72 49.5C72 48.1204 70.9916 47 69.75 47Z" fill="black"/>
<circle cx="65" cy="43" r="28" fill="black"/>
<path d="M76.8706 39.3895L63.8499 66.654C63.6806 67.0095 63.326 67.2256 62.9474 67.2256C62.8733 67.2256 62.7992 67.2175 62.7241 67.2003C62.2694 67.0953 61.9458 66.6873 61.9458 66.2158V50.059H53.9331C53.5886 50.059 53.2681 49.8803 53.0848 49.5864C52.9015 49.2915 52.8805 48.924 53.0307 48.6109L66.0514 21.3464C66.2537 20.9213 66.7204 20.6981 67.1772 20.7991C67.6319 20.9051 67.9554 21.3131 67.9554 21.7846V37.9414H75.9681C76.3127 37.9414 76.6332 38.1201 76.8165 38.414C76.9998 38.7079 77.0198 39.0764 76.8706 39.3895Z" fill="white"/>
</svg>
