<svg width="110" height="111" viewBox="0 0 110 111" fill="none" xmlns="http://www.w3.org/2000/svg">
<path d="M103.949 6.05094C99.916 2.01723 95.0572 0 89.3763 0H20.6251C14.9441 0 10.0854 2.01723 6.05094 6.05094C2.01723 10.0854 0 14.9439 0 20.6251V89.3755C0 95.0562 2.01723 99.9152 6.05094 103.95C10.0854 107.984 14.9441 110.001 20.6251 110.001H89.3755C95.0565 110.001 99.9152 107.984 103.948 103.95C107.982 99.9152 110 95.0565 110 89.3755V20.6251C109.999 14.9439 107.982 10.0847 103.949 6.05094ZM84.1478 42.325C84.1957 42.7547 84.2201 43.3981 84.2201 44.2589C84.2201 48.2696 83.6346 52.292 82.4655 56.3252C81.2963 60.3604 79.5056 64.2276 77.0935 67.9274C74.684 71.627 71.8074 74.8984 68.4658 77.7389C65.1234 80.5784 61.1135 82.8472 56.4336 84.5409C51.756 86.237 46.742 87.0851 41.3952 87.0851C33.0884 87.0851 25.4018 84.8396 18.3354 80.3536C19.4813 80.4961 20.6755 80.5681 21.9161 80.5681C28.8393 80.5681 35.0698 78.4197 40.6083 74.1216C37.3622 74.0752 34.4613 73.0734 31.9073 71.1138C29.3525 69.1565 27.5745 66.6742 26.5717 63.6662C27.8126 63.8568 28.7434 63.9514 29.364 63.9514C30.4143 63.9514 31.6321 63.7608 33.0162 63.3798C29.5311 62.7103 26.5953 60.9812 24.208 58.1882C21.8203 55.3949 20.6268 52.2082 20.6268 48.6278V48.4845C23.1565 49.6773 25.5438 50.2978 27.788 50.3463C23.4432 47.4333 21.271 43.2563 21.271 37.8137C21.271 35.1398 21.9628 32.6096 23.3474 30.2224C27.1188 34.8538 31.7031 38.5534 37.0973 41.3224C42.4921 44.0911 48.2696 45.6436 54.4282 45.9774C54.1899 45.0704 54.0702 43.9241 54.0702 42.54C54.0702 38.3856 55.5384 34.8413 58.4749 31.9047C61.4105 28.9684 64.9558 27.4998 69.1089 27.4998C73.5023 27.4998 77.1555 29.0758 80.0675 32.227C83.362 31.6065 86.5621 30.3884 89.6645 28.5749C88.4713 32.2501 86.2499 35.0434 83.0048 36.9533C86.1071 36.5229 88.9948 35.7117 91.6679 34.5182C89.663 37.5736 87.1556 40.1756 84.1478 42.325Z" fill="white"/>
<path d="M103 6H7V103H103V6Z" fill="white"/>
<path d="M55.4834 26.1724C57.9893 26.1724 60.3925 25.177 62.1644 23.4051C63.9363 21.6332 64.9317 19.23 64.9317 16.7241V12C62.5697 12 62.5697 13.5747 60.2076 13.5747C57.8455 13.5747 57.8455 12 55.4834 12C53.1214 12 53.1214 13.5747 50.7593 13.5747C48.3972 13.5747 48.3972 12 46.0352 12V16.7241C46.0352 19.23 47.0306 21.6332 48.8025 23.4051C50.5744 25.177 52.9776 26.1724 55.4834 26.1724V26.1724Z" fill="black"/>
<path d="M50.7647 29.3223C49.9294 29.3223 49.1283 29.6541 48.5377 30.2447C47.947 30.8353 47.6152 31.6364 47.6152 32.4717C47.6152 33.307 47.947 34.108 48.5377 34.6987C49.1283 35.2893 49.9294 35.6211 50.7647 35.6211H60.2129C61.0482 35.6211 61.8493 35.2893 62.4399 34.6987C63.0306 34.108 63.3624 33.307 63.3624 32.4717C63.3624 31.6364 63.0306 30.8353 62.4399 30.2447C61.8493 29.6541 61.0482 29.3223 60.2129 29.3223H50.7647Z" fill="black"/>
<path d="M55.4932 54.5176C52.3788 54.5176 49.3342 55.4411 46.7446 57.1714C44.155 58.9018 42.1366 61.3611 40.9448 64.2385C39.7529 67.116 39.4411 70.2822 40.0487 73.3368C40.6563 76.3915 42.1561 79.1973 44.3583 81.3996C46.5606 83.6019 49.3665 85.1017 52.4211 85.7093C55.4758 86.3169 58.642 86.005 61.5194 84.8132C64.3968 83.6213 66.8562 81.603 68.5865 79.0134C70.3168 76.4238 71.2404 73.3792 71.2404 70.2647C71.2404 66.0883 69.5813 62.083 66.6282 59.1298C63.675 56.1766 59.6696 54.5176 55.4932 54.5176ZM58.6427 78.1383V79.713C58.6427 80.1306 58.4768 80.5312 58.1814 80.8265C57.8861 81.1218 57.4856 81.2877 57.068 81.2877C56.6503 81.2877 56.2498 81.1218 55.9545 80.8265C55.6591 80.5312 55.4932 80.1306 55.4932 79.713V78.1383H53.9185V79.713C53.9185 80.1306 53.7526 80.5312 53.4573 80.8265C53.162 81.1218 52.7615 81.2877 52.3438 81.2877C51.9262 81.2877 51.5256 81.1218 51.2303 80.8265C50.935 80.5312 50.7691 80.1306 50.7691 79.713V78.1383H49.1944C48.7767 78.1383 48.3762 77.9724 48.0809 77.6771C47.7856 77.3817 47.6197 76.9812 47.6197 76.5636C47.6197 76.1459 47.7856 75.7454 48.0809 75.4501C48.3762 75.1548 48.7767 74.9889 49.1944 74.9889V65.5406C48.7767 65.5406 48.3762 65.3747 48.0809 65.0794C47.7856 64.784 47.6197 64.3835 47.6197 63.9659C47.6197 63.5482 47.7856 63.1477 48.0809 62.8524C48.3762 62.5571 48.7767 62.3911 49.1944 62.3911H50.7691V60.8164C50.7691 60.3988 50.935 59.9983 51.2303 59.7029C51.5256 59.4076 51.9262 59.2417 52.3438 59.2417C52.7615 59.2417 53.162 59.4076 53.4573 59.7029C53.7526 59.9983 53.9185 60.3988 53.9185 60.8164V62.3911H55.4932V60.8164C55.4932 60.3988 55.6591 59.9983 55.9545 59.7029C56.2498 59.4076 56.6503 59.2417 57.068 59.2417C57.4856 59.2417 57.8861 59.4076 58.1814 59.7029C58.4768 59.9983 58.6427 60.3988 58.6427 60.8164V62.6746C59.291 62.9038 59.8815 63.2718 60.3729 63.7528C60.8643 64.2339 61.2447 64.8164 61.4876 65.4597C61.7306 66.103 61.8301 66.7916 61.7794 67.4774C61.7286 68.1632 61.5287 68.8296 61.1937 69.4301C62.0567 69.98 62.7178 70.7953 63.0776 71.7533C63.4374 72.7113 63.4763 73.7602 63.1886 74.7423C62.9009 75.7243 62.3022 76.5864 61.4823 77.1988C60.6625 77.8113 59.666 78.141 58.6427 78.1383V78.1383Z" fill="black"/>
<path d="M57.1011 65.752H52.377V68.9014H57.1011C57.5187 68.9014 57.9193 68.7355 58.2146 68.4402C58.5099 68.1448 58.6758 67.7443 58.6758 67.3267C58.6758 66.909 58.5099 66.5085 58.2146 66.2132C57.9193 65.9179 57.5187 65.752 57.1011 65.752Z" fill="black"/>
<path d="M58.6758 72.0508H52.377V75.2002H58.6758C59.0934 75.2002 59.494 75.0343 59.7893 74.739C60.0846 74.4437 60.2505 74.0431 60.2505 73.6255C60.2505 73.2079 60.0846 72.8073 59.7893 72.512C59.494 72.2167 59.0934 72.0508 58.6758 72.0508Z" fill="black"/>
<path d="M96.839 73.8711C95.2643 69.8714 96.5556 71.8398 64.4787 37.1016C62.0693 39.3377 59.912 38.7708 50.7629 38.7708C49.1813 38.7699 47.6579 38.174 46.4954 37.1016L17.4734 68.5329C15.2456 70.9618 13.7716 73.9858 13.2307 77.237C12.6897 80.4882 13.1051 83.8265 14.4263 86.846C15.7475 89.8655 17.9177 92.436 20.6728 94.2449C23.4279 96.0538 26.6493 97.0232 29.9452 97.0352H81.0289C83.7914 97.0319 86.5114 96.3551 88.9533 95.0635C91.3953 93.7718 93.4854 91.9043 95.0428 89.6226C96.6001 87.3409 97.5776 84.7139 97.8906 81.9692C98.2036 79.2245 97.8426 76.4449 96.839 73.8711V73.8711ZM55.487 89.1616C51.7497 89.1616 48.0962 88.0533 44.9887 85.977C41.8811 83.9006 39.4591 80.9493 38.0289 77.4964C36.5987 74.0436 36.2244 70.2441 36.9536 66.5785C37.6827 62.9129 39.4824 59.5459 42.1252 56.9031C44.7679 54.2604 48.1349 52.4607 51.8005 51.7316C55.4661 51.0024 59.2656 51.3767 62.7184 52.8069C66.1713 54.2371 69.1226 56.6591 71.199 59.7667C73.2753 62.8742 74.3836 66.5277 74.3836 70.265C74.3836 75.2767 72.3927 80.0831 68.8489 83.6269C65.3051 87.1707 60.4987 89.1616 55.487 89.1616V89.1616Z" fill="black"/>
</svg>
