<svg width="110" height="111" viewBox="0 0 110 111" fill="none" xmlns="http://www.w3.org/2000/svg">
<path d="M103.949 6.05094C99.916 2.01723 95.0572 0 89.3763 0H20.6251C14.9441 0 10.0854 2.01723 6.05094 6.05094C2.01723 10.0854 0 14.9439 0 20.6251V89.3755C0 95.0562 2.01723 99.9152 6.05094 103.95C10.0854 107.984 14.9441 110.001 20.6251 110.001H89.3755C95.0565 110.001 99.9152 107.984 103.948 103.95C107.982 99.9152 110 95.0565 110 89.3755V20.6251C109.999 14.9439 107.982 10.0847 103.949 6.05094ZM84.1478 42.325C84.1957 42.7547 84.2201 43.3981 84.2201 44.2589C84.2201 48.2696 83.6346 52.292 82.4655 56.3252C81.2963 60.3604 79.5056 64.2276 77.0935 67.9274C74.684 71.627 71.8074 74.8984 68.4658 77.7389C65.1234 80.5784 61.1135 82.8472 56.4336 84.5409C51.756 86.237 46.742 87.0851 41.3952 87.0851C33.0884 87.0851 25.4018 84.8396 18.3354 80.3536C19.4813 80.4961 20.6755 80.5681 21.9161 80.5681C28.8393 80.5681 35.0698 78.4197 40.6083 74.1216C37.3622 74.0752 34.4613 73.0734 31.9073 71.1138C29.3525 69.1565 27.5745 66.6742 26.5717 63.6662C27.8126 63.8568 28.7434 63.9514 29.364 63.9514C30.4143 63.9514 31.6321 63.7608 33.0162 63.3798C29.5311 62.7103 26.5953 60.9812 24.208 58.1882C21.8203 55.3949 20.6268 52.2082 20.6268 48.6278V48.4845C23.1565 49.6773 25.5438 50.2978 27.788 50.3463C23.4432 47.4333 21.271 43.2563 21.271 37.8137C21.271 35.1398 21.9628 32.6096 23.3474 30.2224C27.1188 34.8538 31.7031 38.5534 37.0973 41.3224C42.4921 44.0911 48.2696 45.6436 54.4282 45.9774C54.1899 45.0704 54.0702 43.9241 54.0702 42.54C54.0702 38.3856 55.5384 34.8413 58.4749 31.9047C61.4105 28.9684 64.9558 27.4998 69.1089 27.4998C73.5023 27.4998 77.1555 29.0758 80.0675 32.227C83.362 31.6065 86.5621 30.3884 89.6645 28.5749C88.4713 32.2501 86.2499 35.0434 83.0048 36.9533C86.1071 36.5229 88.9948 35.7117 91.6679 34.5182C89.663 37.5736 87.1556 40.1756 84.1478 42.325Z" fill="white"/>
<path d="M103 6H7V103H103V6Z" fill="white"/>
<path d="M71.4248 47.4574L52.8643 86.006C52.623 86.5086 52.1176 86.8141 51.5779 86.8141C51.4723 86.8141 51.3666 86.8027 51.2596 86.7784C50.6114 86.6299 50.1502 86.0531 50.1502 85.3864V62.5427H38.7284C38.2372 62.5427 37.7804 62.29 37.5191 61.8746C37.2578 61.4577 37.2278 60.938 37.442 60.4954L56.0025 21.9467C56.2909 21.3456 56.9562 21.0301 57.6072 21.1729C58.2554 21.3228 58.7166 21.8996 58.7166 22.5663V45.41H70.1384C70.6295 45.41 71.0864 45.6627 71.3477 46.0782C71.609 46.4936 71.6375 47.0148 71.4248 47.4574ZM86.1475 11.5757V23.69C86.1475 24.4781 85.5079 25.1177 84.7198 25.1177H72.6055C72.0287 25.1177 71.5076 24.7693 71.2863 24.2368C71.065 23.7028 71.1878 23.0889 71.5961 22.6806L75.7851 18.4916C69.4031 14.6339 62.0774 12.5723 54.4334 12.5723C31.6026 12.5723 13.0293 31.1456 13.0293 53.9764C13.0293 60.3697 14.4499 66.5032 17.2525 72.207C17.6009 72.9152 17.3082 73.7704 16.6 74.1173C16.3973 74.2173 16.1831 74.2644 15.9718 74.2644C15.4436 74.2644 14.9367 73.9717 14.6897 73.4663C11.6929 67.367 10.1738 60.8095 10.1738 53.9764C10.1738 29.5722 30.0292 9.7168 54.4334 9.7168C62.8456 9.7168 70.8937 12.0626 77.8538 16.4228L83.7118 10.5649C84.1216 10.1551 84.7341 10.0338 85.268 10.2551C85.8006 10.4778 86.1475 10.9975 86.1475 11.5757ZM98.693 53.9764C98.693 78.3805 78.8375 98.2359 54.4334 98.2359C46.0226 98.2359 37.9731 95.8916 31.0144 91.5299L25.1564 97.3878C24.8837 97.6605 24.5182 97.8062 24.147 97.8062C23.9628 97.8062 23.7772 97.7705 23.6002 97.6977C23.0662 97.4764 22.7193 96.9553 22.7193 96.3785V84.2628C22.7193 83.8844 22.8692 83.5203 23.1376 83.2533C23.406 82.9864 23.7687 82.835 24.147 82.835H36.2613C36.8381 82.835 37.3592 83.1834 37.5805 83.7159C37.8018 84.2499 37.679 84.8638 37.2707 85.2721L33.0831 89.4611C39.4637 93.3188 46.7908 95.3805 54.4334 95.3805C77.2642 95.3805 95.8375 76.8072 95.8375 53.9764C95.8375 47.583 94.4169 41.4495 91.6143 35.7457C91.2659 35.0376 91.5586 34.1823 92.2668 33.8354C92.972 33.4856 93.8301 33.7797 94.1771 34.4879C97.1739 40.5857 98.693 47.1433 98.693 53.9764Z" fill="black"/>
</svg>
