<svg width="65" height="72" viewBox="0 0 65 72" fill="none" xmlns="http://www.w3.org/2000/svg">
<g clip-path="url(#clip0_5992_109)">
<path d="M51.0134 47.6494C54.6523 45.9894 57.696 43.2161 59.7238 39.7132C61.78 36.22 62.8597 32.2187 62.8458 28.1434C62.937 25.2708 62.4524 22.4094 61.4216 19.7348C60.3909 17.0601 58.8358 14.6287 56.8516 12.5896C54.4974 10.3956 51.7308 8.71315 48.72 7.64474C45.7091 6.57629 42.5168 6.14412 39.3372 6.3745H25.6004V0H9.366V6.3745H0V21.5458H9.366V35.761H0V50.2311H9.366V72H25.6004V50.2311H35.1537L46.4554 72H65L51.0134 47.6494ZM45.2066 32.2868C44.5779 33.4969 43.5991 34.4797 42.4036 35.1014C41.2081 35.7231 39.8538 35.9534 38.5254 35.761H25.4443V21.5458H38.9938C40.2483 21.3481 41.5319 21.5666 42.6558 22.1689C43.7797 22.7714 44.6847 23.7259 45.2378 24.8924C45.8433 26.0289 46.1553 27.3042 46.1444 28.5979C46.1335 29.8916 45.7999 31.1612 45.1753 32.2868H45.2066Z" fill="#5A5A5A"/>
</g>
<defs>
<clipPath id="clip0_5992_109">
<rect width="65" height="72" fill="white"/>
</clipPath>
</defs>
</svg>
