<svg width="9" height="10" viewBox="0 0 9 10" fill="none" xmlns="http://www.w3.org/2000/svg">
<path d="M7.0634 6.61797C7.56724 6.38741 7.98868 6.00224 8.26945 5.51572C8.55415 5.03056 8.70365 4.47482 8.70173 3.90881C8.71436 3.50983 8.64725 3.11241 8.50453 2.74094C8.36181 2.36946 8.14649 2.03177 7.87176 1.74856C7.5458 1.44383 7.16273 1.21016 6.74584 1.06177C6.32895 0.913373 5.88694 0.85335 5.44669 0.885347H3.54467V0H1.29683V0.885347H0V2.99247H1.29683V4.9668H0V6.97654H1.29683V10H3.54467V6.97654H4.86744L6.43228 10H9L7.0634 6.61797ZM6.25937 4.48428C6.17232 4.65235 6.0368 4.78885 5.87127 4.8752C5.70573 4.96154 5.51822 4.99353 5.33429 4.9668H3.52305V2.99247H5.39914C5.57284 2.96502 5.75057 2.99536 5.90619 3.07902C6.06181 3.16269 6.18711 3.29527 6.26369 3.45728C6.34753 3.61513 6.39073 3.79225 6.38922 3.97193C6.38771 4.15161 6.34153 4.32794 6.25504 4.48428H6.25937Z" fill="white"/>
</svg>
