<svg width="110" height="111" viewBox="0 0 110 111" fill="none" xmlns="http://www.w3.org/2000/svg">
<path d="M103.949 6.05098C99.9166 2.01724 95.0578 0 89.3768 0H20.6252C14.9442 0 10.0855 2.01724 6.05098 6.05098C2.01724 10.0855 0 14.944 0 20.6252V89.376C0 95.0568 2.01724 99.9158 6.05098 103.95C10.0855 107.985 14.9442 110.002 20.6252 110.002H89.3761C95.0571 110.002 99.9158 107.985 103.949 103.95C107.983 99.9158 110 95.057 110 89.376V20.6252C110 14.944 107.983 10.0847 103.949 6.05098ZM84.1483 42.3252C84.1962 42.7549 84.2206 43.3983 84.2206 44.2592C84.2206 48.2699 83.6351 52.2923 82.466 56.3255C81.2968 60.3608 79.5061 64.228 77.094 67.9278C74.6845 71.6275 71.8078 74.8989 68.4662 77.7394C65.1237 80.5789 61.1138 82.8477 56.4339 84.5414C51.7563 86.2375 46.7423 87.0856 41.3954 87.0856C33.0886 87.0856 25.4019 84.8401 18.3355 80.3541C19.4814 80.4966 20.6756 80.5686 21.9163 80.5686C28.8394 80.5686 35.07 78.4202 40.6085 74.122C37.3624 74.0756 34.4615 73.0738 31.9074 71.1142C29.3527 69.1569 27.5747 66.6746 26.5719 63.6666C27.8128 63.8572 28.7436 63.9518 29.3642 63.9518C30.4145 63.9518 31.6323 63.7612 33.0164 63.3801C29.5313 62.7106 26.5954 60.9816 24.2082 58.1885C21.8204 55.3952 20.627 52.2085 20.627 48.6281V48.4848C23.1567 49.6776 25.5439 50.2981 27.7882 50.3466C23.4434 47.4336 21.2711 43.2566 21.2711 37.8139C21.2711 35.14 21.9629 32.6098 23.3476 30.2225C27.1189 34.854 31.7033 38.5536 37.0975 41.3226C42.4923 44.0914 48.2699 45.6438 54.4285 45.9777C54.1902 45.0707 54.0705 43.9243 54.0705 42.5402C54.0705 38.3858 55.5387 34.8415 58.4753 31.9049C61.4108 28.9686 64.9562 27.4999 69.1093 27.4999C73.5027 27.4999 77.156 29.0759 80.0679 32.2272C83.3625 31.6067 86.5627 30.3886 89.665 28.575C88.4718 32.2503 86.2504 35.0437 83.0053 36.9535C86.1076 36.5231 88.9953 35.7119 91.6685 34.5184C89.6635 37.5739 87.1561 40.1758 84.1483 42.3252Z" fill="white"/>
<path d="M101.086 9.03125H9.78125V101.842H101.086V9.03125Z" fill="white"/>
<path d="M71.579 9H39.4355V19.6124H71.579V9Z" fill="black"/>
<path d="M89.946 87.9808L68.619 50.6332V24.8164H42.292V50.7352L21.0672 87.9808C18.0059 93.3891 21.8835 100.226 28.2101 100.226H82.803C89.0276 100.226 93.0072 93.4911 89.946 87.9808Z" fill="black"/>
<path d="M65.8159 70.9844L54.1194 94.7309C53.9673 95.0405 53.6488 95.2287 53.3087 95.2287C53.2421 95.2287 53.1756 95.2217 53.1081 95.2067C52.6996 95.1153 52.409 94.7599 52.409 94.3492V80.2772H45.2111C44.9016 80.2772 44.6137 80.1215 44.449 79.8656C44.2844 79.6088 44.2655 79.2886 44.4005 79.016L56.097 55.2694C56.2787 54.8992 56.698 54.7048 57.1083 54.7928C57.5168 54.8851 57.8074 55.2404 57.8074 55.6511V69.7232H65.0053C65.3148 69.7232 65.6027 69.8788 65.7673 70.1348C65.932 70.3907 65.95 70.7117 65.8159 70.9844Z" fill="white"/>
</svg>
