<svg width="110" height="111" viewBox="0 0 110 111" fill="none" xmlns="http://www.w3.org/2000/svg">
<path d="M103.949 6.05094C99.916 2.01723 95.0572 0 89.3763 0H20.6251C14.9441 0 10.0854 2.01723 6.05094 6.05094C2.01723 10.0854 0 14.9439 0 20.6251V89.3755C0 95.0562 2.01723 99.9152 6.05094 103.95C10.0854 107.984 14.9441 110.001 20.6251 110.001H89.3755C95.0565 110.001 99.9152 107.984 103.948 103.95C107.982 99.9152 110 95.0565 110 89.3755V20.6251C109.999 14.9439 107.982 10.0847 103.949 6.05094ZM84.1478 42.325C84.1957 42.7547 84.2201 43.3981 84.2201 44.2589C84.2201 48.2696 83.6346 52.292 82.4655 56.3252C81.2963 60.3604 79.5056 64.2276 77.0935 67.9274C74.684 71.627 71.8074 74.8984 68.4658 77.7389C65.1234 80.5784 61.1135 82.8472 56.4336 84.5409C51.756 86.237 46.742 87.0851 41.3952 87.0851C33.0884 87.0851 25.4018 84.8396 18.3354 80.3536C19.4813 80.4961 20.6755 80.5681 21.9161 80.5681C28.8393 80.5681 35.0698 78.4197 40.6083 74.1216C37.3622 74.0752 34.4613 73.0734 31.9073 71.1138C29.3525 69.1565 27.5745 66.6742 26.5717 63.6662C27.8126 63.8568 28.7434 63.9514 29.364 63.9514C30.4143 63.9514 31.6321 63.7608 33.0162 63.3798C29.5311 62.7103 26.5953 60.9812 24.208 58.1882C21.8203 55.3949 20.6268 52.2082 20.6268 48.6278V48.4845C23.1565 49.6773 25.5438 50.2978 27.788 50.3463C23.4432 47.4333 21.271 43.2563 21.271 37.8137C21.271 35.1398 21.9628 32.6096 23.3474 30.2224C27.1188 34.8538 31.7031 38.5534 37.0973 41.3224C42.4921 44.0911 48.2696 45.6436 54.4282 45.9774C54.1899 45.0704 54.0702 43.9241 54.0702 42.54C54.0702 38.3856 55.5384 34.8413 58.4749 31.9047C61.4105 28.9684 64.9558 27.4998 69.1089 27.4998C73.5023 27.4998 77.1555 29.0758 80.0675 32.227C83.362 31.6065 86.5621 30.3884 89.6645 28.5749C88.4713 32.2501 86.2499 35.0434 83.0048 36.9533C86.1071 36.5229 88.9948 35.7117 91.6679 34.5182C89.663 37.5736 87.1556 40.1756 84.1478 42.325Z" fill="white"/>
<path d="M101.088 9.03125H9.7832V101.841H101.088V9.03125Z" fill="white"/>
<path d="M28.1152 16H33.1741V21.0589H28.1152V16Z" fill="black"/>
<path d="M38.2363 16H43.2952V21.0589H38.2363V16Z" fill="black"/>
<path d="M68.5879 16H73.6468V21.0589H68.5879V16Z" fill="black"/>
<path d="M78.707 16H83.7659V21.0589H78.707V16Z" fill="black"/>
<path d="M18 21.0586H28.1177V31.1763H18V21.0586Z" fill="black"/>
<path d="M43.293 21.0586H68.5873V31.1763H43.293V21.0586Z" fill="black"/>
<path d="M33.1777 21.0586H38.2366V31.1763H33.1777V21.0586Z" fill="black"/>
<path d="M81.2358 51.4129C85.7869 51.4129 90.0864 52.5114 93.8829 54.457V36.2363H18V84.2955H53.8742C50.7183 67.1858 63.8945 51.4129 81.2358 51.4129V51.4129ZM71.118 41.2952H76.1769V46.354H71.118V41.2952ZM58.4709 41.2952H63.5297V46.354H58.4709V41.2952ZM38.2354 66.5895H33.1766V61.5306H38.2354V66.5895ZM38.2354 56.4718H33.1766V51.4129H38.2354V56.4718ZM38.2354 46.354H33.1766V41.2952H38.2354V46.354ZM50.8826 56.4718H45.8237V51.4129H50.8826V56.4718ZM50.8826 46.354H45.8237V41.2952H50.8826V46.354Z" fill="black"/>
<path d="M83.7637 21.0586H93.8814V31.1763H83.7637V21.0586Z" fill="black"/>
<path d="M73.6465 21.0586H78.7053V31.1763H73.6465V21.0586Z" fill="black"/>
<path d="M83.7659 81.7637C81.9966 81.7637 80.4763 81.7637 78.707 81.7637V86.8225H83.7659C87.1177 86.6949 87.1152 81.89 83.7659 81.7637Z" fill="black"/>
<path d="M83.7659 74.1759C83.7659 72.7812 82.6312 71.6465 81.2365 71.6465H78.707V76.7053H81.2365C82.6312 76.7053 83.7659 75.5706 83.7659 74.1759Z" fill="black"/>
<path d="M81.2356 56.4707C68.663 56.4707 58.4707 66.6628 58.4707 79.2356C59.5867 109.4 102.889 109.392 104 79.2352C104 66.6628 93.8082 56.4707 81.2356 56.4707V56.4707ZM83.765 91.8827V94.4122H78.7061V91.8827C76.183 91.8827 73.6432 91.8827 71.1179 91.8827V86.8239H73.6473C73.6473 85.3268 73.6473 73.1285 73.6473 71.6473H71.1179V66.5884H78.7061V64.059H83.765V67.0235C88.2332 68.6083 90.1464 73.8298 87.8435 77.9004C94.1567 81.9274 91.3528 91.845 83.765 91.8827Z" fill="black"/>
<circle cx="81" cy="79" r="17" fill="black"/>
<path d="M89.9504 73.975C89.8636 73.7872 89.6767 73.6667 89.4708 73.6667H83.1973L89.3887 63.8187C89.4919 63.6544 89.4983 63.4464 89.4052 63.2763C89.312 63.1056 89.134 63 88.9413 63H80.4708C80.2701 63 80.0869 63.1141 79.997 63.2949L72.0558 79.295C71.9737 79.4598 71.9827 79.656 72.0791 79.8133C72.176 79.9707 72.3459 80.0667 72.5296 80.0667H77.9735L72.0415 94.2598C71.9404 94.5024 72.0304 94.784 72.2532 94.9216C72.339 94.9744 72.4343 95 72.5291 95C72.681 95 72.8308 94.9344 72.9346 94.8107L89.8758 74.544C90.0086 74.3851 90.0372 74.1632 89.9504 73.975Z" fill="white"/>
<path d="M103.949 6.05094C99.916 2.01723 95.0572 0 89.3763 0H20.6251C14.9441 0 10.0854 2.01723 6.05094 6.05094C2.01723 10.0854 0 14.9439 0 20.6251V89.3755C0 95.0562 2.01723 99.9152 6.05094 103.95C10.0854 107.984 14.9441 110.001 20.6251 110.001H89.3755C95.0565 110.001 99.9152 107.984 103.948 103.95C107.982 99.9152 110 95.0565 110 89.3755V20.6251C109.999 14.9439 107.982 10.0847 103.949 6.05094ZM84.1478 42.325C84.1957 42.7547 84.2201 43.3981 84.2201 44.2589C84.2201 48.2696 83.6346 52.292 82.4655 56.3252C81.2963 60.3604 79.5056 64.2276 77.0935 67.9274C74.684 71.627 71.8074 74.8984 68.4658 77.7389C65.1234 80.5784 61.1135 82.8472 56.4336 84.5409C51.756 86.237 46.742 87.0851 41.3952 87.0851C33.0884 87.0851 25.4018 84.8396 18.3354 80.3536C19.4813 80.4961 20.6755 80.5681 21.9161 80.5681C28.8393 80.5681 35.0698 78.4197 40.6083 74.1216C37.3622 74.0752 34.4613 73.0734 31.9073 71.1138C29.3525 69.1565 27.5745 66.6742 26.5717 63.6662C27.8126 63.8568 28.7434 63.9514 29.364 63.9514C30.4143 63.9514 31.6321 63.7608 33.0162 63.3798C29.5311 62.7103 26.5953 60.9812 24.208 58.1882C21.8203 55.3949 20.6268 52.2082 20.6268 48.6278V48.4845C23.1565 49.6773 25.5438 50.2978 27.788 50.3463C23.4432 47.4333 21.271 43.2563 21.271 37.8137C21.271 35.1398 21.9628 32.6096 23.3474 30.2224C27.1188 34.8538 31.7031 38.5534 37.0973 41.3224C42.4921 44.0911 48.2696 45.6436 54.4282 45.9774C54.1899 45.0704 54.0702 43.9241 54.0702 42.54C54.0702 38.3856 55.5384 34.8413 58.4749 31.9047C61.4105 28.9684 64.9558 27.4998 69.1089 27.4998C73.5023 27.4998 77.1555 29.0758 80.0675 32.227C83.362 31.6065 86.5621 30.3884 89.6645 28.5749C88.4713 32.2501 86.2499 35.0434 83.0048 36.9533C86.1071 36.5229 88.9948 35.7117 91.6679 34.5182C89.663 37.5736 87.1556 40.1756 84.1478 42.325Z" fill="white"/>
<path d="M101.088 9.03125H9.7832V101.841H101.088V9.03125Z" fill="white"/>
<path d="M28.1152 16H33.1741V21.0589H28.1152V16Z" fill="black"/>
<path d="M38.2363 16H43.2952V21.0589H38.2363V16Z" fill="black"/>
<path d="M68.5879 16H73.6468V21.0589H68.5879V16Z" fill="black"/>
<path d="M78.707 16H83.7659V21.0589H78.707V16Z" fill="black"/>
<path d="M18 21.0586H28.1177V31.1763H18V21.0586Z" fill="black"/>
<path d="M43.293 21.0586H68.5873V31.1763H43.293V21.0586Z" fill="black"/>
<path d="M33.1777 21.0586H38.2366V31.1763H33.1777V21.0586Z" fill="black"/>
<path d="M81.2358 51.4129C85.7869 51.4129 90.0864 52.5114 93.8829 54.457V36.2363H18V84.2955H53.8742C50.7183 67.1858 63.8945 51.4129 81.2358 51.4129V51.4129ZM71.118 41.2952H76.1769V46.354H71.118V41.2952ZM58.4709 41.2952H63.5297V46.354H58.4709V41.2952ZM38.2354 66.5895H33.1766V61.5306H38.2354V66.5895ZM38.2354 56.4718H33.1766V51.4129H38.2354V56.4718ZM38.2354 46.354H33.1766V41.2952H38.2354V46.354ZM50.8826 56.4718H45.8237V51.4129H50.8826V56.4718ZM50.8826 46.354H45.8237V41.2952H50.8826V46.354Z" fill="black"/>
<path d="M83.7637 21.0586H93.8814V31.1763H83.7637V21.0586Z" fill="black"/>
<path d="M73.6465 21.0586H78.7053V31.1763H73.6465V21.0586Z" fill="black"/>
<path d="M83.7659 81.7637C81.9966 81.7637 80.4763 81.7637 78.707 81.7637V86.8225H83.7659C87.1177 86.6949 87.1152 81.89 83.7659 81.7637Z" fill="black"/>
<path d="M83.7659 74.1759C83.7659 72.7812 82.6312 71.6465 81.2365 71.6465H78.707V76.7053H81.2365C82.6312 76.7053 83.7659 75.5706 83.7659 74.1759Z" fill="black"/>
<path d="M81.2356 56.4707C68.663 56.4707 58.4707 66.6628 58.4707 79.2356C59.5867 109.4 102.889 109.392 104 79.2352C104 66.6628 93.8082 56.4707 81.2356 56.4707V56.4707ZM83.765 91.8827V94.4122H78.7061V91.8827C76.183 91.8827 73.6432 91.8827 71.1179 91.8827V86.8239H73.6473C73.6473 85.3268 73.6473 73.1285 73.6473 71.6473H71.1179V66.5884H78.7061V64.059H83.765V67.0235C88.2332 68.6083 90.1464 73.8298 87.8435 77.9004C94.1567 81.9274 91.3528 91.845 83.765 91.8827Z" fill="black"/>
<circle cx="81" cy="79" r="17" fill="black"/>
<path d="M89.0582 75.5793L79.5685 95.8078C79.4452 96.0715 79.1868 96.2319 78.9108 96.2319C78.8568 96.2319 78.8028 96.2259 78.7481 96.2131C78.4167 96.1352 78.1809 95.8325 78.1809 95.4827V83.4954H72.3411C72.09 83.4954 71.8564 83.3628 71.7228 83.1448C71.5892 82.926 71.5739 82.6533 71.6834 82.421L81.173 62.1925C81.3205 61.8771 81.6607 61.7115 81.9935 61.7864C82.3249 61.8651 82.5607 62.1678 82.5607 62.5176V74.5049H88.4005C88.6516 74.5049 88.8852 74.6375 89.0188 74.8555C89.1524 75.0736 89.167 75.347 89.0582 75.5793Z" fill="white"/>
</svg>
