<svg width="741" height="741" viewBox="0 0 741 741" fill="none" xmlns="http://www.w3.org/2000/svg">
<rect x="2.5" y="2.5" width="736" height="736" rx="97.5" fill="white" stroke="black" stroke-width="5"/>
<path d="M271.771 125.5H341.089C350.153 125.5 357.501 132.848 357.501 141.912V211.23C357.501 220.294 350.153 227.642 341.089 227.642H271.771C262.707 227.642 255.359 220.294 255.359 211.23V141.912C255.359 132.848 262.707 125.5 271.771 125.5Z" fill="black" stroke="black" stroke-width="5"/>
<path d="M398.912 125.5H468.23C477.294 125.5 484.642 132.848 484.642 141.912V211.23C484.642 220.294 477.294 227.642 468.23 227.642H398.912C389.848 227.642 382.5 220.294 382.5 211.23V141.912C382.5 132.848 389.848 125.5 398.912 125.5Z" fill="black" stroke="black" stroke-width="5"/>
<path d="M525.912 125.5H595.23C604.294 125.5 611.642 132.848 611.642 141.912V211.23C611.642 220.294 604.294 227.642 595.23 227.642H525.912C516.848 227.642 509.5 220.294 509.5 211.23V141.912C509.5 132.848 516.848 125.5 525.912 125.5Z" fill="black" stroke="black" stroke-width="5"/>
<path d="M144.912 125.5H214.23C223.294 125.5 230.642 132.848 230.642 141.912V211.23C230.642 220.294 223.294 227.642 214.23 227.642H144.912C135.848 227.642 128.5 220.294 128.5 211.23V141.912C128.5 132.848 135.848 125.5 144.912 125.5Z" fill="black" stroke="black" stroke-width="5"/>
<path d="M271.771 252.358H341.089C350.153 252.358 357.501 259.706 357.501 268.77V338.088C357.501 347.152 350.153 354.5 341.089 354.5H271.771C262.707 354.5 255.359 347.152 255.359 338.088V268.77C255.359 259.706 262.707 252.358 271.771 252.358Z" fill="black" stroke="black" stroke-width="5"/>
<path d="M398.912 252.358H468.23C477.294 252.358 484.642 259.706 484.642 268.77V338.088C484.642 347.152 477.294 354.5 468.23 354.5H398.912C389.848 354.5 382.5 347.152 382.5 338.088V268.77C382.5 259.706 389.848 252.358 398.912 252.358Z" fill="black" stroke="black" stroke-width="5"/>
<path d="M525.912 252.358H595.23C604.294 252.358 611.642 259.706 611.642 268.77V338.088C611.642 347.152 604.294 354.5 595.23 354.5H525.912C516.848 354.5 509.5 347.152 509.5 338.088V268.77C509.5 259.706 516.848 252.358 525.912 252.358Z" fill="black" stroke="black" stroke-width="5"/>
<path d="M144.912 252.358H214.23C223.294 252.358 230.642 259.706 230.642 268.77V338.088C230.642 347.152 223.294 354.5 214.23 354.5H144.912C135.848 354.5 128.5 347.152 128.5 338.088V268.77C128.5 259.706 135.848 252.358 144.912 252.358Z" fill="black" stroke="black" stroke-width="5"/>
<path d="M271.771 386.5H341.089C350.153 386.5 357.501 393.848 357.501 402.912V472.23C357.501 481.294 350.153 488.642 341.089 488.642H271.771C262.707 488.642 255.359 481.294 255.359 472.23V402.912C255.359 393.848 262.707 386.5 271.771 386.5Z" fill="black" stroke="black" stroke-width="5"/>
<path d="M398.912 386.5H468.23C477.294 386.5 484.642 393.848 484.642 402.912V472.23C484.642 481.294 477.294 488.642 468.23 488.642H398.912C389.848 488.642 382.5 481.294 382.5 472.23V402.912C382.5 393.848 389.848 386.5 398.912 386.5Z" fill="black" stroke="black" stroke-width="5"/>
<path d="M525.912 386.5H595.23C604.294 386.5 611.642 393.848 611.642 402.912V472.23C611.642 481.294 604.294 488.642 595.23 488.642H525.912C516.848 488.642 509.5 481.294 509.5 472.23V402.912C509.5 393.848 516.848 386.5 525.912 386.5Z" fill="black" stroke="black" stroke-width="5"/>
<path d="M144.912 386.5H214.23C223.294 386.5 230.642 393.848 230.642 402.912V472.23C230.642 481.294 223.294 488.642 214.23 488.642H144.912C135.848 488.642 128.5 481.294 128.5 472.23V402.912C128.5 393.848 135.848 386.5 144.912 386.5Z" fill="black" stroke="black" stroke-width="5"/>
<path d="M271.771 513.358H341.089C350.153 513.358 357.501 520.706 357.501 529.77V599.088C357.501 608.152 350.153 615.5 341.089 615.5H271.771C262.707 615.5 255.359 608.152 255.359 599.088V529.77C255.359 520.706 262.707 513.358 271.771 513.358Z" fill="black" stroke="black" stroke-width="5"/>
<path d="M398.912 513.358H468.23C477.294 513.358 484.642 520.706 484.642 529.77V599.088C484.642 608.152 477.294 615.5 468.23 615.5H398.912C389.848 615.5 382.5 608.152 382.5 599.088V529.77C382.5 520.706 389.848 513.358 398.912 513.358Z" fill="black" stroke="black" stroke-width="5"/>
<path d="M525.912 513.358H595.23C604.294 513.358 611.642 520.706 611.642 529.77V599.088C611.642 608.152 604.294 615.5 595.23 615.5H525.912C516.848 615.5 509.5 608.152 509.5 599.088V529.77C509.5 520.706 516.848 513.358 525.912 513.358Z" fill="black" stroke="black" stroke-width="5"/>
<path d="M144.912 513.358H214.23C223.294 513.358 230.642 520.706 230.642 529.77V599.088C230.642 608.152 223.294 615.5 214.23 615.5H144.912C135.848 615.5 128.5 608.152 128.5 599.088V529.77C128.5 520.706 135.848 513.358 144.912 513.358Z" fill="black" stroke="black" stroke-width="5"/>
</svg>
