<svg width="741" height="741" viewBox="0 0 741 741" fill="none" xmlns="http://www.w3.org/2000/svg">
<rect x="2.5" y="2.5" width="736" height="736" rx="97.5" fill="white" stroke="black" stroke-width="5"/>
<path d="M137.885 188.5H174.115C178.236 188.5 181.5 191.77 181.5 195.708V231.292C181.5 235.23 178.236 238.5 174.115 238.5H137.885C133.764 238.5 130.5 235.23 130.5 231.292V195.708C130.5 191.77 133.764 188.5 137.885 188.5Z" fill="black" stroke="black" stroke-width="5"/>
<path d="M135.885 439.5H172.115C176.236 439.5 179.5 442.77 179.5 446.708V482.292C179.5 486.23 176.236 489.5 172.115 489.5H135.885C131.764 489.5 128.5 486.23 128.5 482.292V446.708C128.5 442.77 131.764 439.5 135.885 439.5Z" fill="black" stroke="black" stroke-width="5"/>
<path d="M135.885 314.5H172.115C176.236 314.5 179.5 317.77 179.5 321.708V357.292C179.5 361.23 176.236 364.5 172.115 364.5H135.885C131.764 364.5 128.5 361.23 128.5 357.292V321.708C128.5 317.77 131.764 314.5 135.885 314.5Z" fill="black" stroke="black" stroke-width="5"/>
<path d="M133.885 565.5H170.115C174.236 565.5 177.5 568.77 177.5 572.708V608.292C177.5 612.23 174.236 615.5 170.115 615.5H133.885C129.764 615.5 126.5 612.23 126.5 608.292V572.708C126.5 568.77 129.764 565.5 133.885 565.5Z" fill="black" stroke="black" stroke-width="5"/>
<path d="M261.061 188.5H297.939C302.2 188.5 305.5 191.811 305.5 195.708V231.292C305.5 235.189 302.2 238.5 297.939 238.5H261.061C256.8 238.5 253.5 235.189 253.5 231.292V195.708C253.5 191.811 256.8 188.5 261.061 188.5Z" fill="black" stroke="black" stroke-width="5"/>
<path d="M259.885 439.5H296.115C300.236 439.5 303.5 442.77 303.5 446.708V482.292C303.5 486.23 300.236 489.5 296.115 489.5H259.885C255.764 489.5 252.5 486.23 252.5 482.292V446.708C252.5 442.77 255.764 439.5 259.885 439.5Z" fill="black" stroke="black" stroke-width="5"/>
<path d="M259.885 314.5H296.115C300.236 314.5 303.5 317.77 303.5 321.708V357.292C303.5 361.23 300.236 364.5 296.115 364.5H259.885C255.764 364.5 252.5 361.23 252.5 357.292V321.708C252.5 317.77 255.764 314.5 259.885 314.5Z" fill="black" stroke="black" stroke-width="5"/>
<path d="M256.885 565.5H293.115C297.236 565.5 300.5 568.77 300.5 572.708V608.292C300.5 612.23 297.236 615.5 293.115 615.5H256.885C252.764 615.5 249.5 612.23 249.5 608.292V572.708C249.5 568.77 252.764 565.5 256.885 565.5Z" fill="black" stroke="black" stroke-width="5"/>
<path d="M385.061 188.5H421.939C426.2 188.5 429.5 191.811 429.5 195.708V231.292C429.5 235.189 426.2 238.5 421.939 238.5H385.061C380.8 238.5 377.5 235.189 377.5 231.292V195.708C377.5 191.811 380.8 188.5 385.061 188.5Z" fill="black" stroke="black" stroke-width="5"/>
<path d="M382.885 439.5H419.115C423.236 439.5 426.5 442.77 426.5 446.708V482.292C426.5 486.23 423.236 489.5 419.115 489.5H382.885C378.764 489.5 375.5 486.23 375.5 482.292V446.708C375.5 442.77 378.764 439.5 382.885 439.5Z" fill="black" stroke="black" stroke-width="5"/>
<path d="M382.885 314.5H419.115C423.236 314.5 426.5 317.77 426.5 321.708V357.292C426.5 361.23 423.236 364.5 419.115 364.5H382.885C378.764 364.5 375.5 361.23 375.5 357.292V321.708C375.5 317.77 378.764 314.5 382.885 314.5Z" fill="black" stroke="black" stroke-width="5"/>
<path d="M380.708 565.5H416.292C420.273 565.5 423.5 568.727 423.5 572.708V608.292C423.5 612.273 420.273 615.5 416.292 615.5H380.708C376.727 615.5 373.5 612.273 373.5 608.292V572.708C373.5 568.727 376.727 565.5 380.708 565.5Z" fill="black" stroke="black" stroke-width="5"/>
<path d="M508.061 188.5H544.939C549.2 188.5 552.5 191.811 552.5 195.708V231.292C552.5 235.189 549.2 238.5 544.939 238.5H508.061C503.8 238.5 500.5 235.189 500.5 231.292V195.708C500.5 191.811 503.8 188.5 508.061 188.5Z" fill="black" stroke="black" stroke-width="5"/>
<path d="M505.885 439.5H542.115C546.236 439.5 549.5 442.77 549.5 446.708V482.292C549.5 486.23 546.236 489.5 542.115 489.5H505.885C501.764 489.5 498.5 486.23 498.5 482.292V446.708C498.5 442.77 501.764 439.5 505.885 439.5Z" fill="black" stroke="black" stroke-width="5"/>
<path d="M505.885 314.5H542.115C546.236 314.5 549.5 317.77 549.5 321.708V357.292C549.5 361.23 546.236 364.5 542.115 364.5H505.885C501.764 364.5 498.5 361.23 498.5 357.292V321.708C498.5 317.77 501.764 314.5 505.885 314.5Z" fill="black" stroke="black" stroke-width="5"/>
<path d="M503.885 565.5H540.115C544.236 565.5 547.5 568.77 547.5 572.708V608.292C547.5 612.23 544.236 615.5 540.115 615.5H503.885C499.764 615.5 496.5 612.23 496.5 608.292V572.708C496.5 568.77 499.764 565.5 503.885 565.5Z" fill="black" stroke="black" stroke-width="5"/>
<path d="M137.885 125.5H174.115C178.236 125.5 181.5 128.77 181.5 132.708V168.292C181.5 172.23 178.236 175.5 174.115 175.5H137.885C133.764 175.5 130.5 172.23 130.5 168.292V132.708C130.5 128.77 133.764 125.5 137.885 125.5Z" fill="black" stroke="black" stroke-width="5"/>
<path d="M135.885 376.5H172.115C176.236 376.5 179.5 379.77 179.5 383.708V419.292C179.5 423.23 176.236 426.5 172.115 426.5H135.885C131.764 426.5 128.5 423.23 128.5 419.292V383.708C128.5 379.77 131.764 376.5 135.885 376.5Z" fill="black" stroke="black" stroke-width="5"/>
<path d="M135.885 251.5H172.115C176.236 251.5 179.5 254.77 179.5 258.708V294.292C179.5 298.23 176.236 301.5 172.115 301.5H135.885C131.764 301.5 128.5 298.23 128.5 294.292V258.708C128.5 254.77 131.764 251.5 135.885 251.5Z" fill="black" stroke="black" stroke-width="5"/>
<path d="M133.885 502.5H170.115C174.236 502.5 177.5 505.77 177.5 509.708V545.292C177.5 549.23 174.236 552.5 170.115 552.5H133.885C129.764 552.5 126.5 549.23 126.5 545.292V509.708C126.5 505.77 129.764 502.5 133.885 502.5Z" fill="black" stroke="black" stroke-width="5"/>
<path d="M261.061 125.5H297.939C302.2 125.5 305.5 128.811 305.5 132.708V168.292C305.5 172.189 302.2 175.5 297.939 175.5H261.061C256.8 175.5 253.5 172.189 253.5 168.292V132.708C253.5 128.811 256.8 125.5 261.061 125.5Z" fill="black" stroke="black" stroke-width="5"/>
<path d="M259.885 376.5H296.115C300.236 376.5 303.5 379.77 303.5 383.708V419.292C303.5 423.23 300.236 426.5 296.115 426.5H259.885C255.764 426.5 252.5 423.23 252.5 419.292V383.708C252.5 379.77 255.764 376.5 259.885 376.5Z" fill="black" stroke="black" stroke-width="5"/>
<path d="M259.885 251.5H296.115C300.236 251.5 303.5 254.77 303.5 258.708V294.292C303.5 298.23 300.236 301.5 296.115 301.5H259.885C255.764 301.5 252.5 298.23 252.5 294.292V258.708C252.5 254.77 255.764 251.5 259.885 251.5Z" fill="black" stroke="black" stroke-width="5"/>
<path d="M256.885 502.5H293.115C297.236 502.5 300.5 505.77 300.5 509.708V545.292C300.5 549.23 297.236 552.5 293.115 552.5H256.885C252.764 552.5 249.5 549.23 249.5 545.292V509.708C249.5 505.77 252.764 502.5 256.885 502.5Z" fill="black" stroke="black" stroke-width="5"/>
<path d="M385.061 125.5H421.939C426.2 125.5 429.5 128.811 429.5 132.708V168.292C429.5 172.189 426.2 175.5 421.939 175.5H385.061C380.8 175.5 377.5 172.189 377.5 168.292V132.708C377.5 128.811 380.8 125.5 385.061 125.5Z" fill="black" stroke="black" stroke-width="5"/>
<path d="M382.885 376.5H419.115C423.236 376.5 426.5 379.77 426.5 383.708V419.292C426.5 423.23 423.236 426.5 419.115 426.5H382.885C378.764 426.5 375.5 423.23 375.5 419.292V383.708C375.5 379.77 378.764 376.5 382.885 376.5Z" fill="black" stroke="black" stroke-width="5"/>
<path d="M382.885 251.5H419.115C423.236 251.5 426.5 254.77 426.5 258.708V294.292C426.5 298.23 423.236 301.5 419.115 301.5H382.885C378.764 301.5 375.5 298.23 375.5 294.292V258.708C375.5 254.77 378.764 251.5 382.885 251.5Z" fill="black" stroke="black" stroke-width="5"/>
<path d="M380.708 502.5H416.292C420.273 502.5 423.5 505.727 423.5 509.708V545.292C423.5 549.273 420.273 552.5 416.292 552.5H380.708C376.727 552.5 373.5 549.273 373.5 545.292V509.708C373.5 505.727 376.727 502.5 380.708 502.5Z" fill="black" stroke="black" stroke-width="5"/>
<path d="M508.061 125.5H544.939C549.2 125.5 552.5 128.811 552.5 132.708V168.292C552.5 172.189 549.2 175.5 544.939 175.5H508.061C503.8 175.5 500.5 172.189 500.5 168.292V132.708C500.5 128.811 503.8 125.5 508.061 125.5Z" fill="black" stroke="black" stroke-width="5"/>
<path d="M505.885 376.5H542.115C546.236 376.5 549.5 379.77 549.5 383.708V419.292C549.5 423.23 546.236 426.5 542.115 426.5H505.885C501.764 426.5 498.5 423.23 498.5 419.292V383.708C498.5 379.77 501.764 376.5 505.885 376.5Z" fill="black" stroke="black" stroke-width="5"/>
<path d="M505.885 251.5H542.115C546.236 251.5 549.5 254.77 549.5 258.708V294.292C549.5 298.23 546.236 301.5 542.115 301.5H505.885C501.764 301.5 498.5 298.23 498.5 294.292V258.708C498.5 254.77 501.764 251.5 505.885 251.5Z" fill="black" stroke="black" stroke-width="5"/>
<path d="M503.885 502.5H540.115C544.236 502.5 547.5 505.77 547.5 509.708V545.292C547.5 549.23 544.236 552.5 540.115 552.5H503.885C499.764 552.5 496.5 549.23 496.5 545.292V509.708C496.5 505.77 499.764 502.5 503.885 502.5Z" fill="black" stroke="black" stroke-width="5"/>
<path d="M199.885 188.5H236.115C240.236 188.5 243.5 191.77 243.5 195.708V231.292C243.5 235.23 240.236 238.5 236.115 238.5H199.885C195.764 238.5 192.5 235.23 192.5 231.292V195.708C192.5 191.77 195.764 188.5 199.885 188.5Z" fill="black" stroke="black" stroke-width="5"/>
<path d="M197.885 439.5H234.115C238.236 439.5 241.5 442.77 241.5 446.708V482.292C241.5 486.23 238.236 489.5 234.115 489.5H197.885C193.764 489.5 190.5 486.23 190.5 482.292V446.708C190.5 442.77 193.764 439.5 197.885 439.5Z" fill="black" stroke="black" stroke-width="5"/>
<path d="M197.885 314.5H234.115C238.236 314.5 241.5 317.77 241.5 321.708V357.292C241.5 361.23 238.236 364.5 234.115 364.5H197.885C193.764 364.5 190.5 361.23 190.5 357.292V321.708C190.5 317.77 193.764 314.5 197.885 314.5Z" fill="black" stroke="black" stroke-width="5"/>
<path d="M195.061 565.5H231.939C236.2 565.5 239.5 568.811 239.5 572.708V608.292C239.5 612.189 236.2 615.5 231.939 615.5H195.061C190.8 615.5 187.5 612.189 187.5 608.292V572.708C187.5 568.811 190.8 565.5 195.061 565.5Z" fill="black" stroke="black" stroke-width="5"/>
<path d="M323.708 188.5H359.292C363.273 188.5 366.5 191.727 366.5 195.708V231.292C366.5 235.273 363.273 238.5 359.292 238.5H323.708C319.727 238.5 316.5 235.273 316.5 231.292V195.708C316.5 191.727 319.727 188.5 323.708 188.5Z" fill="black" stroke="black" stroke-width="5"/>
<path d="M320.885 439.5H357.115C361.236 439.5 364.5 442.77 364.5 446.708V482.292C364.5 486.23 361.236 489.5 357.115 489.5H320.885C316.764 489.5 313.5 486.23 313.5 482.292V446.708C313.5 442.77 316.764 439.5 320.885 439.5Z" fill="black" stroke="black" stroke-width="5"/>
<path d="M320.885 314.5H357.115C361.236 314.5 364.5 317.77 364.5 321.708V357.292C364.5 361.23 361.236 364.5 357.115 364.5H320.885C316.764 364.5 313.5 361.23 313.5 357.292V321.708C313.5 317.77 316.764 314.5 320.885 314.5Z" fill="black" stroke="black" stroke-width="5"/>
<path d="M318.061 565.5H354.939C359.2 565.5 362.5 568.811 362.5 572.708V608.292C362.5 612.189 359.2 615.5 354.939 615.5H318.061C313.8 615.5 310.5 612.189 310.5 608.292V572.708C310.5 568.811 313.8 565.5 318.061 565.5Z" fill="black" stroke="black" stroke-width="5"/>
<path d="M446.885 188.5H483.115C487.236 188.5 490.5 191.77 490.5 195.708V231.292C490.5 235.23 487.236 238.5 483.115 238.5H446.885C442.764 238.5 439.5 235.23 439.5 231.292V195.708C439.5 191.77 442.764 188.5 446.885 188.5Z" fill="black" stroke="black" stroke-width="5"/>
<path d="M443.885 439.5H480.115C484.236 439.5 487.5 442.77 487.5 446.708V482.292C487.5 486.23 484.236 489.5 480.115 489.5H443.885C439.764 489.5 436.5 486.23 436.5 482.292V446.708C436.5 442.77 439.764 439.5 443.885 439.5Z" fill="black" stroke="black" stroke-width="5"/>
<path d="M443.885 314.5H480.115C484.236 314.5 487.5 317.77 487.5 321.708V357.292C487.5 361.23 484.236 364.5 480.115 364.5H443.885C439.764 364.5 436.5 361.23 436.5 357.292V321.708C436.5 317.77 439.764 314.5 443.885 314.5Z" fill="black" stroke="black" stroke-width="5"/>
<path d="M442.061 565.5H478.939C483.2 565.5 486.5 568.811 486.5 572.708V608.292C486.5 612.189 483.2 615.5 478.939 615.5H442.061C437.8 615.5 434.5 612.189 434.5 608.292V572.708C434.5 568.811 437.8 565.5 442.061 565.5Z" fill="black" stroke="black" stroke-width="5"/>
<path d="M569.885 188.5H606.115C610.236 188.5 613.5 191.77 613.5 195.708V231.292C613.5 235.23 610.236 238.5 606.115 238.5H569.885C565.764 238.5 562.5 235.23 562.5 231.292V195.708C562.5 191.77 565.764 188.5 569.885 188.5Z" fill="black" stroke="black" stroke-width="5"/>
<path d="M567.885 439.5H604.115C608.236 439.5 611.5 442.77 611.5 446.708V482.292C611.5 486.23 608.236 489.5 604.115 489.5H567.885C563.764 489.5 560.5 486.23 560.5 482.292V446.708C560.5 442.77 563.764 439.5 567.885 439.5Z" fill="black" stroke="black" stroke-width="5"/>
<path d="M567.885 314.5H604.115C608.236 314.5 611.5 317.77 611.5 321.708V357.292C611.5 361.23 608.236 364.5 604.115 364.5H567.885C563.764 364.5 560.5 361.23 560.5 357.292V321.708C560.5 317.77 563.764 314.5 567.885 314.5Z" fill="black" stroke="black" stroke-width="5"/>
<path d="M565.885 565.5H602.115C606.236 565.5 609.5 568.77 609.5 572.708V608.292C609.5 612.23 606.236 615.5 602.115 615.5H565.885C561.764 615.5 558.5 612.23 558.5 608.292V572.708C558.5 568.77 561.764 565.5 565.885 565.5Z" fill="black" stroke="black" stroke-width="5"/>
<path d="M199.885 125.5H236.115C240.236 125.5 243.5 128.77 243.5 132.708V168.292C243.5 172.23 240.236 175.5 236.115 175.5H199.885C195.764 175.5 192.5 172.23 192.5 168.292V132.708C192.5 128.77 195.764 125.5 199.885 125.5Z" fill="black" stroke="black" stroke-width="5"/>
<path d="M197.885 376.5H234.115C238.236 376.5 241.5 379.77 241.5 383.708V419.292C241.5 423.23 238.236 426.5 234.115 426.5H197.885C193.764 426.5 190.5 423.23 190.5 419.292V383.708C190.5 379.77 193.764 376.5 197.885 376.5Z" fill="black" stroke="black" stroke-width="5"/>
<path d="M197.885 251.5H234.115C238.236 251.5 241.5 254.77 241.5 258.708V294.292C241.5 298.23 238.236 301.5 234.115 301.5H197.885C193.764 301.5 190.5 298.23 190.5 294.292V258.708C190.5 254.77 193.764 251.5 197.885 251.5Z" fill="black" stroke="black" stroke-width="5"/>
<path d="M195.061 502.5H231.939C236.2 502.5 239.5 505.811 239.5 509.708V545.292C239.5 549.189 236.2 552.5 231.939 552.5H195.061C190.8 552.5 187.5 549.189 187.5 545.292V509.708C187.5 505.811 190.8 502.5 195.061 502.5Z" fill="black" stroke="black" stroke-width="5"/>
<path d="M323.708 125.5H359.292C363.273 125.5 366.5 128.727 366.5 132.708V168.292C366.5 172.273 363.273 175.5 359.292 175.5H323.708C319.727 175.5 316.5 172.273 316.5 168.292V132.708C316.5 128.727 319.727 125.5 323.708 125.5Z" fill="black" stroke="black" stroke-width="5"/>
<path d="M320.885 376.5H357.115C361.236 376.5 364.5 379.77 364.5 383.708V419.292C364.5 423.23 361.236 426.5 357.115 426.5H320.885C316.764 426.5 313.5 423.23 313.5 419.292V383.708C313.5 379.77 316.764 376.5 320.885 376.5Z" fill="black" stroke="black" stroke-width="5"/>
<path d="M320.885 251.5H357.115C361.236 251.5 364.5 254.77 364.5 258.708V294.292C364.5 298.23 361.236 301.5 357.115 301.5H320.885C316.764 301.5 313.5 298.23 313.5 294.292V258.708C313.5 254.77 316.764 251.5 320.885 251.5Z" fill="black" stroke="black" stroke-width="5"/>
<path d="M318.061 502.5H354.939C359.2 502.5 362.5 505.811 362.5 509.708V545.292C362.5 549.189 359.2 552.5 354.939 552.5H318.061C313.8 552.5 310.5 549.189 310.5 545.292V509.708C310.5 505.811 313.8 502.5 318.061 502.5Z" fill="black" stroke="black" stroke-width="5"/>
<path d="M446.885 125.5H483.115C487.236 125.5 490.5 128.77 490.5 132.708V168.292C490.5 172.23 487.236 175.5 483.115 175.5H446.885C442.764 175.5 439.5 172.23 439.5 168.292V132.708C439.5 128.77 442.764 125.5 446.885 125.5Z" fill="black" stroke="black" stroke-width="5"/>
<path d="M443.885 376.5H480.115C484.236 376.5 487.5 379.77 487.5 383.708V419.292C487.5 423.23 484.236 426.5 480.115 426.5H443.885C439.764 426.5 436.5 423.23 436.5 419.292V383.708C436.5 379.77 439.764 376.5 443.885 376.5Z" fill="black" stroke="black" stroke-width="5"/>
<path d="M443.885 251.5H480.115C484.236 251.5 487.5 254.77 487.5 258.708V294.292C487.5 298.23 484.236 301.5 480.115 301.5H443.885C439.764 301.5 436.5 298.23 436.5 294.292V258.708C436.5 254.77 439.764 251.5 443.885 251.5Z" fill="black" stroke="black" stroke-width="5"/>
<path d="M442.061 502.5H478.939C483.2 502.5 486.5 505.811 486.5 509.708V545.292C486.5 549.189 483.2 552.5 478.939 552.5H442.061C437.8 552.5 434.5 549.189 434.5 545.292V509.708C434.5 505.811 437.8 502.5 442.061 502.5Z" fill="black" stroke="black" stroke-width="5"/>
<path d="M569.885 125.5H606.115C610.236 125.5 613.5 128.77 613.5 132.708V168.292C613.5 172.23 610.236 175.5 606.115 175.5H569.885C565.764 175.5 562.5 172.23 562.5 168.292V132.708C562.5 128.77 565.764 125.5 569.885 125.5Z" fill="black" stroke="black" stroke-width="5"/>
<path d="M567.885 376.5H604.115C608.236 376.5 611.5 379.77 611.5 383.708V419.292C611.5 423.23 608.236 426.5 604.115 426.5H567.885C563.764 426.5 560.5 423.23 560.5 419.292V383.708C560.5 379.77 563.764 376.5 567.885 376.5Z" fill="black" stroke="black" stroke-width="5"/>
<path d="M567.885 251.5H604.115C608.236 251.5 611.5 254.77 611.5 258.708V294.292C611.5 298.23 608.236 301.5 604.115 301.5H567.885C563.764 301.5 560.5 298.23 560.5 294.292V258.708C560.5 254.77 563.764 251.5 567.885 251.5Z" fill="black" stroke="black" stroke-width="5"/>
<path d="M565.885 502.5H602.115C606.236 502.5 609.5 505.77 609.5 509.708V545.292C609.5 549.23 606.236 552.5 602.115 552.5H565.885C561.764 552.5 558.5 549.23 558.5 545.292V509.708C558.5 505.77 561.764 502.5 565.885 502.5Z" fill="black" stroke="black" stroke-width="5"/>
</svg>
