<svg width="741" height="741" viewBox="0 0 741 741" fill="none" xmlns="http://www.w3.org/2000/svg">
<rect x="2.5" y="2.5" width="736" height="736" rx="97.5" fill="white" fill-opacity="0.1" stroke="black" stroke-width="5"/>
<path d="M432.95 116.5H584.62C606.093 116.5 623.5 133.907 623.5 155.38V307.05C623.5 328.523 606.093 345.93 584.62 345.93H432.95C411.477 345.93 394.07 328.523 394.07 307.05V155.38C394.07 133.907 411.477 116.5 432.95 116.5Z" fill="black" stroke="black" stroke-width="5"/>
<path d="M155.38 116.5H307.05C328.523 116.5 345.93 133.907 345.93 155.38V307.05C345.93 328.523 328.523 345.93 307.05 345.93H155.38C133.907 345.93 116.5 328.523 116.5 307.05V155.38C116.5 133.907 133.907 116.5 155.38 116.5Z" fill="black" stroke="black" stroke-width="5"/>
<path d="M432.95 394.07H584.62C606.093 394.07 623.5 411.477 623.5 432.95V584.62C623.5 606.093 606.093 623.5 584.62 623.5H432.95C411.477 623.5 394.07 606.093 394.07 584.62V432.95C394.07 411.477 411.477 394.07 432.95 394.07Z" fill="black" stroke="black" stroke-width="5"/>
<path d="M155.38 394.07H307.05C328.523 394.07 345.93 411.477 345.93 432.95V584.62C345.93 606.093 328.523 623.5 307.05 623.5H155.38C133.907 623.5 116.5 606.093 116.5 584.62V432.95C116.5 411.477 133.907 394.07 155.38 394.07Z" fill="black" stroke="black" stroke-width="5"/>
</svg>
