<svg width="110" height="110" viewBox="0 0 110 110" fill="none" xmlns="http://www.w3.org/2000/svg">
<path d="M103.838 6.04449C99.8094 2.01508 94.9558 0 89.2809 0H20.6031C14.9282 0 10.0746 2.01508 6.04449 6.04449C2.01508 10.0746 0 14.9279 0 20.6031V89.2802C0 94.9548 2.01508 99.8086 6.04449 103.839C10.0746 107.869 14.9282 109.884 20.6031 109.884H89.2802C94.9551 109.884 99.8086 107.869 103.837 103.839C107.867 99.8086 109.882 94.955 109.882 89.2802V20.6031C109.882 14.9279 107.867 10.0739 103.838 6.04449ZM84.0581 42.2798C84.1059 42.7091 84.1302 43.3518 84.1302 44.2117C84.1302 48.2181 83.5454 52.2362 82.3775 56.2651C81.2096 60.296 79.4208 64.1591 77.0113 67.855C74.6043 71.5506 71.7308 74.8185 68.3927 77.656C65.0539 80.4924 61.0483 82.7588 56.3734 84.4507C51.7008 86.145 46.6921 86.9922 41.351 86.9922C33.0531 86.9922 25.3747 84.7491 18.3159 80.2679C19.4605 80.4102 20.6534 80.4822 21.8928 80.4822C28.8085 80.4822 35.0324 78.336 40.565 74.0425C37.3223 73.9962 34.4245 72.9954 31.8732 71.0379C29.3212 69.0828 27.5451 66.6031 26.5433 63.5983C27.7829 63.7887 28.7128 63.8832 29.3327 63.8832C30.3818 63.8832 31.5983 63.6928 32.981 63.3121C29.4996 62.6434 26.5669 60.9162 24.1822 58.1261C21.797 55.3358 20.6048 52.1525 20.6048 48.5759V48.4328C23.1318 49.6243 25.5165 50.2442 27.7584 50.2925C23.4182 47.3827 21.2483 43.2102 21.2483 37.7733C21.2483 35.1023 21.9394 32.5748 23.3225 30.1901C27.0898 34.8166 31.6692 38.5123 37.0577 41.2783C42.4467 44.0441 48.2181 45.5949 54.3701 45.9284C54.132 45.0223 54.0125 43.8772 54.0125 42.4946C54.0125 38.3446 55.4791 34.8041 58.4125 31.8707C61.3449 28.9375 64.8865 27.4704 69.0352 27.4704C73.4239 27.4704 77.0732 29.0448 79.982 32.1927C83.273 31.5728 86.4698 30.356 89.5688 28.5444C88.3769 32.2157 86.1578 35.0061 82.9162 36.9139C86.0153 36.4839 88.8998 35.6736 91.5701 34.4814C89.5673 37.5336 87.0626 40.1327 84.0581 42.2798Z" fill="white"/>
<path d="M100.979 9.01953H9.77148V101.73H100.979V9.01953Z" fill="white"/>
<path d="M21 24H89V86H21V24Z" fill="black"/>
<path d="M60 45H50V57H60V45Z" fill="white"/>
<path d="M60 69H50V86H60V69Z" fill="white"/>
</svg>
