<svg width="110" height="111" viewBox="0 0 110 111" fill="none" xmlns="http://www.w3.org/2000/svg">
<path d="M103.949 6.05094C99.916 2.01723 95.0573 0 89.3763 0H20.6251C14.9441 0 10.0854 2.01723 6.05094 6.05094C2.01723 10.0854 0 14.9439 0 20.6251V89.3755C0 95.0562 2.01723 99.9152 6.05094 103.95C10.0854 107.984 14.9441 110.001 20.6251 110.001H89.3755C95.0565 110.001 99.9152 107.984 103.948 103.95C107.982 99.9152 110 95.0565 110 89.3755V20.6251C109.999 14.9439 107.982 10.0847 103.949 6.05094ZM84.1478 42.325C84.1958 42.7547 84.2201 43.3981 84.2201 44.259C84.2201 48.2696 83.6346 52.292 82.4655 56.3252C81.2963 60.3604 79.5056 64.2276 77.0936 67.9274C74.684 71.627 71.8074 74.8985 68.4658 77.7389C65.1234 80.5784 61.1135 82.8472 56.4336 84.5409C51.756 86.237 46.742 87.0851 41.3952 87.0851C33.0884 87.0851 25.4018 84.8396 18.3354 80.3537C19.4813 80.4961 20.6755 80.5681 21.9161 80.5681C28.8393 80.5681 35.0698 78.4197 40.6083 74.1216C37.3622 74.0752 34.4613 73.0734 31.9073 71.1138C29.3525 69.1565 27.5745 66.6743 26.5717 63.6662C27.8126 63.8569 28.7434 63.9514 29.364 63.9514C30.4143 63.9514 31.6321 63.7608 33.0162 63.3798C29.5311 62.7103 26.5953 60.9813 24.208 58.1882C21.8203 55.3949 20.6268 52.2082 20.6268 48.6278V48.4846C23.1565 49.6773 25.5438 50.2979 27.788 50.3463C23.4432 47.4333 21.271 43.2564 21.271 37.8137C21.271 35.1398 21.9628 32.6096 23.3474 30.2224C27.1188 34.8538 31.7031 38.5534 37.0973 41.3224C42.4921 44.0911 48.2696 45.6436 54.4282 45.9774C54.1899 45.0704 54.0702 43.9241 54.0702 42.54C54.0702 38.3856 55.5384 34.8413 58.4749 31.9047C61.4105 28.9684 64.9558 27.4998 69.1089 27.4998C73.5023 27.4998 77.1555 29.0758 80.0675 32.2271C83.362 31.6065 86.5622 30.3884 89.6645 28.5749C88.4713 32.2501 86.2499 35.0435 83.0048 36.9533C86.1071 36.5229 88.9948 35.7117 91.6679 34.5182C89.663 37.5736 87.1556 40.1756 84.1478 42.325Z" fill="white"/>
<path d="M101.086 9.03125H9.78125V101.841H101.086V9.03125Z" fill="white"/>
<path d="M57 69H47V86H57V69Z" fill="black"/>
<path fill-rule="evenodd" clip-rule="evenodd" d="M27.8614 67.6282L32.8778 71.7525C33.3386 72.1258 33.5336 72.7124 33.4627 73.2813L32.6473 78.7921L40.2162 88.1428L52.3227 100L63.0645 88.4095L66.0424 79.0944C66.1664 78.7033 66.4323 78.3655 66.7868 78.17L74.143 73.9035L74.9938 64.7662C75.0115 64.464 75.1356 64.144 75.3483 63.8951L80.7369 57.1221H22.8983L27.8614 67.6282ZM14 52.5356C14 53.3001 14.5672 53.94 15.294 54.0645H21.4448H83.1476H85.576H89.4579C90.3087 54.0645 91 53.3712 91 52.5179C91 51.6646 90.3087 50.9713 89.4579 50.9713V50.9891H83.8034H69.4811H83.7857L74.9583 40.9096C74.7279 40.6429 74.5861 40.2874 74.5684 39.914L74.3911 33.1588L68.9494 26.848C68.7012 26.5636 68.5594 26.1725 68.5771 25.7814L68.9316 17.1418L62.6036 9V21.9238C62.6036 22.226 62.515 22.5282 62.3554 22.7771L61.7705 23.6482L66.9818 30.119C67.5313 30.7767 67.4072 31.7722 66.7514 32.2878C66.4678 32.5189 66.1133 32.6433 65.7942 32.6433C65.3511 32.6433 64.9079 32.4477 64.5889 32.0567L59.9979 26.3503L58.0304 29.3546C57.7468 29.799 57.2327 30.0479 56.7364 30.0479C56.4528 30.0479 56.1515 29.959 55.8856 29.799C55.1766 29.3368 54.9816 28.3591 55.4424 27.648L59.5193 21.4438V9.19555L47.6786 25.337L53.9712 36.5009C54.1485 36.8209 54.2194 37.1942 54.1485 37.5675L53.404 41.194L59.3598 44.8738C59.6257 45.0516 59.8384 45.2827 59.9625 45.5671C59.9625 45.5671 62.2845 50.9002 62.3023 50.9891H58.9876L57.3391 47.2559L50.8515 43.2739C50.302 42.9183 50.0184 42.2784 50.1602 41.6384L51.011 37.5319L44.5235 26.0481C44.5058 26.0125 44.488 25.9592 44.4703 25.9236L42.5559 22.5105V34.0654C42.5559 34.3854 42.4673 34.6699 42.3078 34.9187L37.9827 41.514C37.6991 41.9584 37.1851 42.2073 36.6888 42.2073C36.4052 42.2073 36.1038 42.1362 35.8379 41.9584C35.1289 41.4962 34.9339 40.5185 35.3948 39.8074L39.4717 33.6032V24.0393L33.1436 38.5452C33.0018 38.8652 32.7714 39.1319 32.4701 39.2741L27.5069 41.9939L25.8584 46.4915C25.7875 46.687 25.6634 46.8826 25.5394 47.007L21.817 50.9713H17.6515L17.6337 50.9891H15.5067C14.6913 50.9713 14 51.6824 14 52.5356Z" fill="black"/>
</svg>
