<svg width="110" height="111" viewBox="0 0 110 111" fill="none" xmlns="http://www.w3.org/2000/svg">
<path d="M103.949 6.05094C99.916 2.01723 95.0573 0 89.3763 0H20.6251C14.9441 0 10.0854 2.01723 6.05094 6.05094C2.01723 10.0854 0 14.9439 0 20.6251V89.3755C0 95.0562 2.01723 99.9152 6.05094 103.95C10.0854 107.984 14.9441 110.001 20.6251 110.001H89.3755C95.0565 110.001 99.9152 107.984 103.948 103.95C107.982 99.9152 110 95.0565 110 89.3755V20.6251C109.999 14.9439 107.982 10.0847 103.949 6.05094ZM84.1478 42.325C84.1958 42.7547 84.2201 43.3981 84.2201 44.259C84.2201 48.2696 83.6346 52.292 82.4655 56.3252C81.2963 60.3604 79.5056 64.2276 77.0936 67.9274C74.684 71.627 71.8074 74.8985 68.4658 77.7389C65.1234 80.5784 61.1135 82.8472 56.4336 84.5409C51.756 86.237 46.742 87.0851 41.3952 87.0851C33.0884 87.0851 25.4018 84.8396 18.3354 80.3537C19.4813 80.4961 20.6755 80.5681 21.9161 80.5681C28.8393 80.5681 35.0698 78.4197 40.6083 74.1216C37.3622 74.0752 34.4613 73.0734 31.9073 71.1138C29.3525 69.1565 27.5745 66.6743 26.5717 63.6662C27.8126 63.8569 28.7434 63.9514 29.364 63.9514C30.4143 63.9514 31.6321 63.7608 33.0162 63.3798C29.5311 62.7103 26.5953 60.9813 24.208 58.1882C21.8203 55.3949 20.6268 52.2082 20.6268 48.6278V48.4846C23.1565 49.6773 25.5438 50.2979 27.788 50.3463C23.4432 47.4333 21.271 43.2564 21.271 37.8137C21.271 35.1398 21.9628 32.6096 23.3474 30.2224C27.1188 34.8538 31.7031 38.5534 37.0973 41.3224C42.4921 44.0911 48.2696 45.6436 54.4282 45.9774C54.1899 45.0704 54.0702 43.9241 54.0702 42.54C54.0702 38.3856 55.5384 34.8413 58.4749 31.9047C61.4105 28.9684 64.9558 27.4998 69.1089 27.4998C73.5023 27.4998 77.1555 29.0758 80.0675 32.2271C83.362 31.6065 86.5622 30.3884 89.6645 28.5749C88.4713 32.2501 86.2499 35.0435 83.0048 36.9533C86.1071 36.5229 88.9948 35.7117 91.6679 34.5182C89.663 37.5736 87.1556 40.1756 84.1478 42.325Z" fill="white"/>
<path d="M101.086 9.03125H9.78125V101.841H101.086V9.03125Z" fill="white"/>
<path d="M37.7273 58.4546V89.5455C37.7273 90.4617 37.3633 91.3404 36.7155 91.9883C36.0677 92.6361 35.189 93 34.2728 93H20.4546C19.5383 93 18.6597 92.6361 18.0118 91.9883C17.364 91.3404 17 90.4617 17 89.5455V58.4546C17 57.5384 17.364 56.6597 18.0118 56.0118C18.6597 55.3639 19.5383 55.0001 20.4546 55.0001H34.2728C35.189 55.0001 36.0677 55.3639 36.7155 56.0118C37.3633 56.6597 37.7273 57.5384 37.7273 58.4546ZM61.9091 17H48.0909C47.1747 17 46.2961 17.364 45.6482 18.0118C45.0003 18.6597 44.6364 19.5383 44.6364 20.4545V89.5455C44.6364 90.4617 45.0003 91.3404 45.6482 91.9883C46.2961 92.6361 47.1747 93 48.0909 93H61.9091C62.8253 93 63.7039 92.6361 64.3518 91.9883C64.9997 91.3404 65.3637 90.4617 65.3637 89.5455V20.4545C65.3637 19.5383 64.9997 18.6597 64.3518 18.0118C63.7039 17.364 62.8253 17 61.9091 17ZM89.5455 34.2728H75.7274C74.8112 34.2728 73.9324 34.6367 73.2846 35.2845C72.6367 35.9324 72.2727 36.8111 72.2727 37.7273V89.5455C72.2727 90.4617 72.6367 91.3404 73.2846 91.9883C73.9324 92.6361 74.8112 93 75.7274 93H89.5455C90.4617 93 91.3404 92.6361 91.9882 91.9883C92.6361 91.3404 93 90.4617 93 89.5455V37.7273C93 36.8111 92.6361 35.9324 91.9882 35.2845C91.3404 34.6367 90.4617 34.2728 89.5455 34.2728Z" fill="black"/>
</svg>
